<svg width="600" height="600" viewBox="0 0 600 600" fill="none" xmlns="http://www.w3.org/2000/svg">
<path d="M100.403 324.001C98.1939 324.001 96.4031 322.21 96.4031 320.001V182.546C96.4031 180.337 98.1939 178.546 100.403 178.546H127.559C129.768 178.546 131.559 180.337 131.559 182.546V291.45C131.559 293.659 133.35 295.45 135.559 295.45H188.071C190.28 295.45 192.071 297.241 192.071 299.45V320.001C192.071 322.21 190.28 324.001 188.071 324.001H100.403Z" fill="#3B12CC"/>
<path d="M218.27 324.001C216.061 324.001 214.27 322.21 214.27 320.001V218.91C214.27 216.701 216.061 214.91 218.27 214.91H245C247.209 214.91 249 216.701 249 218.91V320.001C249 322.21 247.209 324.001 245 324.001H218.27ZM231.671 202.197C226.794 202.197 222.604 200.587 219.1 197.367C215.596 194.1 213.844 190.17 213.844 185.578C213.844 181.032 215.596 177.15 219.1 173.93C222.604 170.663 226.794 169.029 231.671 169.029C236.595 169.029 240.785 170.663 244.242 173.93C247.746 177.15 249.498 181.032 249.498 185.578C249.498 190.17 247.746 194.1 244.242 197.367C240.785 200.587 236.595 202.197 231.671 202.197Z" fill="#3B12CC"/>
<path d="M309.836 261.785V320.001C309.836 322.21 308.045 324.001 305.836 324.001H279.106C276.897 324.001 275.106 322.21 275.106 320.001V218.91C275.106 216.701 276.897 214.91 279.106 214.91H304.132C306.341 214.91 308.132 216.701 308.132 218.91V234.229C308.132 234.621 308.449 234.938 308.841 234.938C309.14 234.938 309.406 234.751 309.512 234.471C311.948 228.018 316.01 222.941 321.697 219.242C327.521 215.407 334.458 213.49 342.507 213.49C350.177 213.49 356.83 215.218 362.464 218.674C368.146 222.083 372.549 226.865 375.674 233.021C378.847 239.129 380.409 246.278 380.362 254.47V320.001C380.362 322.21 378.571 324.001 376.362 324.001H349.632C347.423 324.001 345.632 322.21 345.632 320.001V261.288C345.679 255.227 344.14 250.492 341.015 247.083C337.938 243.674 333.653 241.97 328.16 241.97C324.514 241.97 321.295 242.775 318.501 244.384C315.755 245.947 313.624 248.196 312.109 251.132C310.641 254.067 309.884 257.618 309.836 261.785Z" fill="#3B12CC"/>
<path d="M438.966 293.223C438.367 293.947 437.191 293.522 437.195 292.583L437.316 257.219C437.322 255.424 438.779 253.972 440.573 253.972C441.573 253.972 442.517 253.513 443.135 252.727L471.637 216.439C472.396 215.474 473.555 214.91 474.783 214.91H503.767C507.137 214.91 508.997 218.823 506.868 221.437L467.789 269.402C467.029 270.335 465.89 270.876 464.688 270.876H459.31C458.117 270.876 456.987 271.409 456.227 272.328L438.966 293.223ZM409.864 324.001C407.655 324.001 405.864 322.21 405.864 320.001V182.546C405.864 180.337 407.655 178.546 409.864 178.546H436.594C438.803 178.546 440.594 180.337 440.594 182.546V320.001C440.594 322.21 438.803 324.001 436.594 324.001H409.864ZM475.827 324.001C474.453 324.001 473.175 323.296 472.443 322.133L446.707 281.289C445.741 279.755 445.926 277.764 447.159 276.436L464.46 257.791C466.228 255.886 469.315 256.146 470.739 258.321L509.693 317.81C511.435 320.47 509.527 324.001 506.347 324.001H475.827Z" fill="#3B12CC"/>
<path d="M85.3945 367.774C85.3945 365.564 87.1854 363.774 89.3945 363.774H509.676C511.886 363.774 513.676 365.564 513.676 367.774V373.41C513.676 375.619 511.886 377.41 509.676 377.41H89.3945C87.1854 377.41 85.3945 375.619 85.3945 373.41V367.774Z" fill="#3B12CC"/>
<path fill-rule="evenodd" clip-rule="evenodd" d="M480.473 391.501C480.478 388.894 481.635 386.452 483.576 384.948C485.514 383.446 487.995 383.065 490.235 383.926C496.112 386.206 501.002 390.385 504.425 395.7C512.946 408.931 511.277 427.034 509.799 442.184C508.746 452.981 508.401 464.024 505.701 474.562C505.701 474.562 492.425 526.585 490.858 531.343C489.29 536.101 488.068 537.71 485.585 539.762C483.102 541.814 480.037 543 476.755 543C473.472 543 401.346 543 397.272 543C393.198 543 389.692 539.412 387.622 536.175C385.552 532.939 327.64 454.569 320.457 444.728C313.274 434.887 310.094 418.982 321.604 410.003C334.097 400.257 345.295 404.379 355.42 413.853C365.546 423.327 379.793 439.506 379.793 439.506C379.793 439.506 379.793 344.403 379.793 314.232C379.793 284.062 421.756 285.121 421.756 314.232C421.756 328.551 421.778 350.261 421.778 368.691C421.778 387.73 421.755 403.263 421.755 403.263L421.778 368.691C421.778 357.39 436.867 359.925 443.083 364.469C446.704 367.116 451.126 371.434 451.126 379.418C451.126 368.179 466.519 370.875 472.431 375.197C476.052 377.844 480.489 383.083 480.473 391.501Z" fill="#F8DB46"/>
<path fill-rule="evenodd" clip-rule="evenodd" d="M389.779 301.546C387.059 304.092 384.863 308.252 384.863 314.465V439.456C384.863 439.456 384.863 439.457 379.561 439.457H384.863C384.863 441.652 383.5 443.619 381.44 444.397C379.381 445.175 377.052 444.603 375.592 442.96L375.59 442.958L375.435 442.784C375.33 442.666 375.173 442.491 374.97 442.264C374.563 441.81 373.969 441.15 373.223 440.326C371.732 438.679 369.637 436.385 367.227 433.799C362.382 428.6 356.354 422.318 351.405 417.73C346.656 413.329 342.193 410.695 337.962 409.953C333.994 409.256 329.512 410.096 324.209 414.194C320.006 417.443 318.42 421.875 318.62 426.808C318.827 431.907 320.981 437.336 324.078 441.54C326.394 444.683 333.966 454.861 343.259 467.353C348.447 474.326 354.171 482.02 359.816 489.613C375.441 510.631 390.736 531.24 391.905 533.049C392.723 534.316 393.753 535.529 394.827 536.371C395.913 537.223 396.695 537.433 397.164 537.433L477.21 537.433C479.212 537.433 481.125 536.724 482.737 535.404C483.769 534.559 484.253 534.039 484.661 533.415C485.118 532.716 485.65 531.618 486.38 529.423C487.098 527.267 490.768 513.374 494.348 499.65C496.117 492.87 497.836 486.237 499.114 481.299C499.752 478.83 500.28 476.785 500.649 475.357L501.225 473.122L501.226 473.121C501.226 473.121 501.226 473.12 506.361 474.433L501.226 473.121L501.227 473.115C503.19 465.528 503.831 457.78 504.512 449.563C504.727 446.963 504.946 444.316 505.212 441.613C505.962 434 506.705 426.106 506.266 418.525C505.828 410.965 504.23 404.164 500.627 398.622C497.743 394.185 493.681 390.78 488.887 388.934C488.4 388.751 487.84 388.804 487.316 389.207C486.746 389.644 486.261 390.492 486.257 391.564L486.257 391.57L486.257 418.559C486.257 421.477 483.884 423.843 480.955 423.843C478.027 423.843 475.653 421.477 475.653 418.559V391.56L475.653 391.55C475.665 385.273 472.398 381.492 469.739 379.566C467.745 378.122 463.56 376.713 460.114 376.855C458.453 376.923 457.605 377.328 457.267 377.602L457.262 377.606C457.123 377.719 456.702 378.061 456.702 379.504V410.634C456.702 413.552 454.328 415.918 451.4 415.918C448.471 415.918 446.098 413.552 446.098 410.634V379.504C446.098 373.976 443.204 371.051 440.183 368.863C438.002 367.283 433.818 365.89 430.468 366.044C428.856 366.118 428.05 366.522 427.731 366.789L427.73 366.791C427.591 366.907 427.146 367.281 427.146 368.801V368.804C427.146 378.303 427.14 386.927 427.134 393.176C427.132 396.302 427.129 398.833 427.127 400.583L427.123 403.299V403.3L427.123 403.303C427.123 403.303 427.123 403.303 421.821 403.296L427.123 403.303C427.119 406.22 424.743 408.582 421.816 408.579C418.888 408.576 416.517 406.209 416.519 403.292L416.519 403.288V403.285L416.542 368.801M427.143 355.828C427.141 350.573 427.138 345.256 427.135 340.092L427.134 338.252C427.128 329.435 427.123 321.144 427.123 314.465C427.123 305.836 423.941 298.901 418.851 294.13C413.837 289.431 407.245 287.083 400.758 287.002C394.267 286.921 387.618 289.108 382.549 293.817C377.404 298.596 374.259 305.627 374.259 314.465V425.817C369.5 420.728 363.613 414.615 358.627 409.993C353.178 404.942 346.904 400.792 339.802 399.546C332.437 398.254 324.989 400.219 317.71 405.845C310.322 411.556 307.713 419.537 308.025 427.234C308.33 434.764 311.394 442.179 315.53 447.793C317.861 450.956 325.47 461.184 334.787 473.708C339.967 480.67 345.674 488.342 351.295 495.903C359.168 506.492 366.877 516.872 372.747 524.805C375.683 528.772 378.155 532.123 379.956 534.58C380.858 535.809 381.586 536.807 382.118 537.545C382.385 537.914 382.597 538.21 382.754 538.432C382.91 538.652 382.975 538.748 382.985 538.764L382.987 538.766C384.253 540.728 386.031 542.92 388.269 544.675C390.495 546.42 393.529 548 397.164 548L477.21 548C481.82 548 486.081 546.342 489.469 543.568C490.938 542.365 492.32 541.059 493.546 539.182C494.725 537.379 495.597 535.3 496.446 532.748C497.308 530.157 501.111 515.724 504.611 502.308C506.382 495.519 508.103 488.879 509.382 483.937C510.021 481.465 510.55 479.418 510.919 477.989L511.496 475.752C513.706 467.206 514.446 458.223 515.137 449.825C515.339 447.373 515.537 444.971 515.766 442.644C516.504 435.141 517.346 426.446 516.852 417.916C516.357 409.366 514.505 400.535 509.527 392.877C505.519 386.711 499.735 381.779 492.694 379.072L492.678 379.066C489.568 377.882 486.211 378.037 483.287 379.367C481.243 375.575 478.459 372.819 475.973 371.018C472.013 368.15 465.47 366.058 459.676 366.297C457.696 366.379 455.518 366.744 453.468 367.649C451.387 364.283 448.662 361.941 446.417 360.315C442.338 357.361 435.794 355.222 429.98 355.489C429.063 355.531 428.107 355.636 427.143 355.828ZM416.542 368.797C416.538 374.5 416.536 349.597 416.531 340.098L416.53 338.275C416.524 329.453 416.519 321.152 416.519 314.465C416.519 308.572 414.419 304.483 411.586 301.827C408.676 299.1 404.702 297.619 400.625 297.568C396.55 297.517 392.5 299 389.779 301.546" fill="#05060F"/>
</svg>
